PathFileType	4	(X/Y/Z)	C:\Users\Basilio\Documents\Thesis Gigler\squatting_fais\c3dfiles\076\SLS_back_pre2\markers_experimental.trc
DataRate	CameraRate	NumFrames	NumMarkers	Units	OrigDataRate	OrigDataStartFrame	OrigNumFrames
200.000000	200.000000	4	61	mm	200.000000	243	1947
Frame#	Time	FHD			LBHD			RBHD			C7			T10			CLAV			LSHO			LUUPA			LMUPA			LDUPA			LLEP			LMEP			LRAD			LUL			LRFIN			RSHO			RUPA1			RMUPA			RDUPA			RLEP			RMEP			RRAD			RUL			RUFIN			RASI			USACR			LSACR			RSACR			LTHI1			LTHI2			LTHI3			LTHI4			LLFC			LMFC			LTIB1			LTIB2			LTIB3			LTIB4			LLMAL			LMMAL			LHEE			LMT1			LMT2			LMT5			RTHI			RTHI2			RTHI3			RTHI4			RLFC			RMFC			RTIB1			RTIB2			RTIB3			RTIB4			RLMAL			RMMAL			RHEE			RMT1			RMT2			RMT5			LASI			
		X1	Y1	Z1	X2	Y2	Z2	X3	Y3	Z3	X4	Y4	Z4	X5	Y5	Z5	X6	Y6	Z6	X7	Y7	Z7	X8	Y8	Z8	X9	Y9	Z9	X10	Y10	Z10	X11	Y11	Z11	X12	Y12	Z12	X13	Y13	Z13	X14	Y14	Z14	X15	Y15	Z15	X16	Y16	Z16	X17	Y17	Z17	X18	Y18	Z18	X19	Y19	Z19	X20	Y20	Z20	X21	Y21	Z21	X22	Y22	Z22	X23	Y23	Z23	X24	Y24	Z24	X25	Y25	Z25	X26	Y26	Z26	X27	Y27	Z27	X28	Y28	Z28	X29	Y29	Z29	X30	Y30	Z30	X31	Y31	Z31	X32	Y32	Z32	X33	Y33	Z33	X34	Y34	Z34	X35	Y35	Z35	X36	Y36	Z36	X37	Y37	Z37	X38	Y38	Z38	X39	Y39	Z39	X40	Y40	Z40	X41	Y41	Z41	X42	Y42	Z42	X43	Y43	Z43	X44	Y44	Z44	X45	Y45	Z45	X46	Y46	Z46	X47	Y47	Z47	X48	Y48	Z48	X49	Y49	Z49	X50	Y50	Z50	X51	Y51	Z51	X52	Y52	Z52	X53	Y53	Z53	X54	Y54	Z54	X55	Y55	Z55	X56	Y56	Z56	X57	Y57	Z57	X58	Y58	Z58	X59	Y59	Z59	X60	Y60	Z60	X61	Y61	Z61	

244	1.215	-175.4945831298828	1637.814086914063	-913.9849243164065	-315.0901489257813	1571.12939453125	-1013.357727050781	-302.5285339355469	1573.0478515625	-861.4372558593752	-359.8222045898438	1451.512817382813	-936.1182861328127	-387.198699951172	1130.800537109375	-937.8024902343752	-228.3301696777344	1370.062133789063	-938.747741699219	-312.2104492187501	1403.09765625	-1106.748657226563	-340.2560119628907	1255.852783203125	-1237.120727539063	-321.3175048828126	1211.47265625	-1223.566040039063	-350.6199035644532	1198.730102539063	-1275.3564453125	-365.1962585449219	1149.912231445313	-1302.578491210938	-440.5826416015626	1134.80419921875	-1257.657104492188	-327.7905578613282	995.7352294921877	-1121.386840820313	-287.0441589355469	962.8065185546877	-1159.450805664063	-279.0975341796876	1018.668579101563	-1106.334350585938	-301.8020629882813	1397.282958984375	-773.649841308594	-360.8937072753907	1268.770385742188	-635.8595581054689	-328.6182250976563	1230.595947265625	-630.6985473632814	-372.9898071289063	1212.738891601563	-593.5595703125001	-367.1320800781251	1143.552856445313	-568.2669677734376	-435.3551330566407	1125.757690429688	-624.6627197265626	-318.2308959960938	1006.047485351563	-759.4752197265626	-273.1149291992188	975.752380371094	-719.0857543945314	-266.2679748535157	1029.822631835938	-767.1471557617189	-219.1987915039063	941.8821411132815	-836.383972167969	-390.3154602050782	1025.978881835938	-933.2634277343752	-399.6580505371095	997.5184326171877	-960.975769042969	-395.0525817871095	995.4768676757815	-904.6692504882815	-323.8442993164063	797.611511230469	-1111.109497070313	-303.7150268554688	715.0778808593751	-1107.026977539063	-255.2439422607422	713.2017822265626	-1096.714599609375	-338.5695495605469	667.0570678710939	-1093.238525390625	-355.1772155761719	507.1136474609376	-1065.957763671875	-318.4986877441407	498.8344116210939	-952.3531494140627	-322.5643005371094	363.2038269042969	-1000.688720703125	-347.3822021484376	311.1541442871094	-1068.033569335938	-317.8841552734376	313.8440551757813	-1032.710693359375	-328.9820556640626	236.1345977783204	-1000.990905761719	-386.8205871582032	109.811264038086	-1053.169921875	-356.0809326171876	121.2801513671875	-974.9754028320315	-443.6181030273439	97.55927276611331	-1007.110107421875	-241.6065368652344	53.48215103149415	-993.3092041015627	-236.2877960205079	50.33107757568361	-1032.113037109375	-260.7883911132813	44.26748657226563	-1082.15478515625	-327.7102661132813	700.7732543945314	-771.2509765625002	-293.9680786132813	642.5573730468751	-766.5771484375001	-259.6379089355469	643.1685180664064	-772.1268310546877	-323.4115600585938	567.0233764648439	-782.7654418945315	-329.7230529785157	506.497528076172	-788.5036621093752	-289.9714050292969	496.7046203613282	-901.2630615234377	-289.6094055175782	374.5835876464844	-800.4404296875002	-359.8398437500001	293.7152709960938	-781.2903442382815	-312.9330749511719	291.4520263671876	-785.8677978515627	-294.5577087402344	245.1554107666016	-816.170837402344	-352.8636169433594	107.7281799316407	-788.2874755859377	-324.0918273925782	117.3215713500977	-869.3035278320315	-407.1758728027345	90.80479431152345	-832.9208984375002	-205.8939208984376	52.16574478149415	-845.5791015625002	-202.2296142578126	52.38705062866212	-799.991394042969	-233.6408233642579	36.23426055908204	-747.7265625000001	nan	nan	nan	
245	1.22	-175.6351470947266	1637.925170898438	-914.3357543945315	-315.0100097656251	1570.725219726563	-1012.941711425781	-302.4519042968751	1573.065063476563	-861.704528808594	-359.8180236816407	1451.534790039063	-936.4177856445315	-387.2230834960939	1130.846801757813	-938.0320434570315	-228.3798828125001	1370.097778320313	-939.019470214844	-311.5674133300782	1402.9873046875	-1106.756225585938	-340.2096862792969	1255.798461914063	-1237.342529296875	-321.1719665527344	1211.432739257813	-1223.776245117188	-350.7223815917969	1198.807861328125	-1275.5673828125	-365.3025207519532	1149.891723632813	-1302.851196289063	-440.5245056152345	1134.833374023438	-1257.82275390625	-328.0904235839844	995.8179321289065	-1121.332641601563	-287.0685424804688	962.741638183594	-1159.654296875	-279.0316772460938	1018.580322265625	-1106.642578125	-301.7760009765626	1397.266235351563	-773.882751464844	-360.8838500976563	1268.838989257813	-636.0980224609376	-328.6159362792969	1230.66357421875	-630.8598022460939	-373.0232238769532	1212.861450195313	-593.7935180664064	-367.1691894531251	1143.582641601563	-568.4846801757814	-435.3616638183595	1125.717041015625	-625.0573730468751	-318.2519836425782	1006.065612792969	-759.6663208007814	-273.1296691894532	975.8391723632815	-719.2388916015626	-266.3473510742188	1029.90771484375	-767.3199462890626	-219.3018798828126	941.8694458007815	-836.5594482421877	-390.3975219726564	1025.956420898438	-933.4300537109377	-399.8057861328126	997.4773559570315	-961.173522949219	-395.2383117675782	995.4741821289065	-904.889587402344	-323.8262634277344	797.517761230469	-1111.297973632813	-303.7249145507813	715.0511474609376	-1107.179321289063	-255.1989746093751	713.1973876953126	-1096.79638671875	-338.6238098144532	667.0605468750001	-1093.408569335938	-355.2901000976563	507.1271972656251	-1066.080932617188	-318.3716125488282	498.9702148437501	-952.5781250000002	-322.5245361328126	363.1791381835938	-1000.761596679688	-347.3468627929688	311.1568298339844	-1068.073120117188	-317.9000549316407	313.7835693359376	-1032.849243164063	-329.3782958984376	236.2923278808594	-1001.230529785156	-386.8106079101564	109.8020172119141	-1053.195922851563	-356.1002197265626	121.2587280273438	-974.9937744140627	-443.6179504394532	97.548210144043	-1007.151794433594	-241.5993041992188	53.4584197998047	-993.318786621094	-236.296859741211	50.36434173583986	-1032.10888671875	-260.8314208984376	44.26404571533204	-1082.163818359375	-327.7408447265626	700.8202514648439	-771.4306640625002	-294.0346984863282	642.5757446289064	-766.7025756835939	-259.6793518066407	643.2879638671876	-772.2059326171877	-323.4479370117188	567.0004882812501	-782.8809814453127	-329.7601623535157	506.5328674316407	-788.5718383789065	-289.9712219238282	496.6641540527345	-901.3621826171877	-289.6221618652344	374.6051635742188	-800.5117797851565	-359.8320617675782	293.7448120117188	-781.2792968750002	-312.9244995117188	291.4497985839844	-785.8953247070315	-294.5664367675782	245.1620178222657	-816.2396240234377	-352.8386840820313	107.7823028564453	-788.2925415039065	-324.0262756347657	117.3359985351563	-869.3291015625002	-407.1701660156251	90.78350067138673	-832.943542480469	-205.9190826416016	52.22548675537111	-845.621276855469	-202.2561645507813	52.43336868286134	-799.9693603515627	-233.6511535644532	36.22093582153321	-747.7283935546876	nan	nan	nan	
246	1.225	-175.5784759521485	1637.799560546875	-914.6151123046877	-314.2889404296876	1571.843017578125	-1013.575500488281	-302.4657287597657	1573.093139648438	-861.9741821289065	-359.7990112304688	1451.541015625	-936.7525634765627	-387.1780700683595	1130.865112304688	-938.2244262695315	-228.3380584716797	1370.094604492188	-939.2574462890627	-311.5314331054688	1402.972534179688	-1107.028930664063	-340.2344970703126	1255.750854492188	-1237.58251953125	-321.2449645996094	1211.410766601563	-1224.03662109375	-350.7538757324219	1198.804931640625	-1275.839721679688	-365.1618957519532	1149.843139648438	-1303.070434570313	-440.4998779296876	1134.800170898438	-1258.069702148438	-328.0234985351563	995.832458496094	-1121.591064453125	-287.0637817382813	962.7395629882815	-1159.882690429688	-279.0457458496094	1018.584777832031	-1106.876831054688	-301.8224182128907	1397.325805664063	-774.138854980469	-360.9969482421876	1268.863037109375	-636.3394775390626	-328.6333007812501	1230.722778320313	-631.1165161132814	-373.1141662597657	1212.888793945313	-594.0643920898439	-367.1990051269532	1143.649291992188	-568.8040161132814	-435.738494873047	1125.109375	-625.0815429687501	-318.2323913574219	1006.047546386719	-759.8701171875001	-273.1624450683594	975.897888183594	-719.3981933593751	-266.3801879882813	1029.939453125	-767.4893188476564	-219.3671264648438	941.8311767578127	-836.7798461914065	-390.4735107421876	1026.008911132813	-933.6175537109377	-399.8164978027345	997.503601074219	-961.4251098632815	-395.313201904297	995.4826660156252	-905.1398925781252	-323.7935791015626	797.554626464844	-1111.463500976563	-303.6922302246094	715.0194091796876	-1107.2587890625	-255.2422790527344	713.1633911132814	-1096.923706054688	-338.6921997070313	667.0485839843751	-1093.57666015625	-355.1741333007813	507.1621093750001	-1066.161987304688	-318.4515075683594	498.8828430175782	-952.525329589844	-322.5614624023438	363.1885681152344	-1000.830444335938	-347.4491882324219	310.9981994628907	-1068.112670898438	-317.8977355957032	313.7146606445313	-1032.857788085938	-329.3705444335938	236.2858886718751	-1001.27734375	-386.6077880859376	109.7643814086914	-1053.122680664063	-356.0833435058594	121.285888671875	-974.9763183593752	-443.5976867675782	97.54887390136722	-1007.144653320313	-241.5698852539063	53.45647430419923	-993.2849121093752	-236.3125305175782	50.34817504882814	-1032.11865234375	-260.8185119628907	44.26351547241212	-1082.197265625	-327.8647766113282	700.8521728515626	-771.8485107421877	-294.0348510742188	642.6058959960939	-766.8522338867189	-259.7469482421876	643.2742919921876	-772.383483886719	-323.5094299316407	567.0285644531251	-782.9544067382815	-329.7037658691407	506.5671997070314	-788.7061157226565	-289.9624328613282	496.644012451172	-901.3906250000002	-289.6411437988282	374.5716552734376	-800.5852661132815	-359.8878479003907	293.7407531738282	-781.372497558594	-312.9266967773438	291.4846496582032	-785.9139404296877	-294.5917053222657	245.1617584228516	-816.2612915039065	-352.8565063476563	107.730339050293	-788.3335571289065	-324.0683593750001	117.4067687988282	-869.3668212890627	-407.1644897460939	90.82467651367189	-832.9473266601565	-205.9152984619141	52.17025756835939	-845.6184692382815	-202.2311248779297	52.44476318359376	-799.991638183594	-233.6445007324219	36.19360733032227	-747.7350463867189	nan	nan	nan	
247	1.23	-175.5988159179688	1637.76904296875	-914.9777832031252	-314.4327392578126	1571.759399414063	-1013.760559082031	-302.4574890136719	1573.114624023438	-862.1931762695315	-359.7971801757813	1451.559448242188	-936.9956054687502	-387.1758728027345	1130.877807617188	-938.4787597656252	-228.2623596191407	1370.052490234375	-939.498718261719	-311.4901428222657	1402.945556640625	-1107.239501953125	-340.0389709472657	1255.688110351563	-1237.74267578125	-321.0799865722657	1211.386352539063	-1224.241333007813	-350.5967102050782	1198.727661132813	-1276.069213867188	-364.9746398925782	1149.810180664063	-1303.223388671875	-440.4602355957032	1134.77294921875	-1258.28173828125	-327.9888305664063	995.7771606445315	-1121.806762695313	-287.0865478515626	962.7095336914065	-1160.071411132813	-279.0529174804688	1018.507751464844	-1107.080688476563	-301.7629089355469	1397.336791992188	-774.4289550781252	-361.0358886718751	1268.926513671875	-636.5921630859376	-328.6811218261719	1230.713745117188	-631.3474731445314	-373.2120361328126	1212.882934570313	-594.3062133789064	-367.2039184570313	1143.785522460938	-569.0574951171876	-435.4919433593751	1125.846313476563	-625.4891967773439	-318.3737182617188	1006.063049316406	-760.1004638671876	-273.2528076171876	975.9272460937502	-719.6090698242189	-266.4450683593751	1029.961791992188	-767.6588745117189	-219.4450073242188	941.853698730469	-837.0213623046877	-390.5150451660157	1026.018310546875	-933.7775878906252	-399.8958740234376	997.5385742187502	-961.6448974609377	-395.2626037597657	995.4381103515627	-905.3919677734377	-323.8133544921876	797.575378417969	-1111.651977539063	-303.6950073242188	715.0208129882814	-1107.508911132813	-255.269027709961	713.1720581054689	-1097.02978515625	-338.5747070312501	666.9716186523439	-1093.714599609375	-355.0668029785157	507.118377685547	-1066.282592773438	-318.3907165527344	498.9600219726564	-952.6912231445315	-322.5385742187501	363.1702575683594	-1000.852416992188	-347.4089965820313	311.0065917968751	-1068.1318359375	-317.8663635253907	313.6963806152344	-1032.8876953125	-329.3944396972657	236.2707672119141	-1001.306457519531	-386.7151794433595	109.7689971923828	-1053.126831054688	-356.1553955078126	121.2960281372071	-974.978210449219	-443.6423950195314	97.55559539794925	-1007.082824707031	-241.5651092529297	53.50925827026369	-993.289489746094	-236.3110046386719	50.3476028442383	-1032.11669921875	-260.7797851562501	44.26722717285157	-1082.187866210938	-327.9384765625001	700.8633422851564	-772.0789794921877	-294.0572204589844	642.6533813476564	-766.9362792968751	-259.8021850585938	643.3001708984376	-772.5085449218752	-323.5252990722657	566.9997558593751	-783.090515136719	-329.7397155761719	506.6173706054689	-788.8133544921877	-289.9266967773438	496.612762451172	-901.465515136719	-289.6239318847657	374.5646362304688	-800.6303710937502	-359.8417663574219	293.8178710937501	-781.3711547851565	-313.0014648437501	291.4992065429688	-785.9370117187502	-294.6178588867188	245.1822052001954	-816.3111572265627	-352.8482360839844	107.7653274536133	-788.3108520507815	-324.1545410156251	117.3564605712891	-869.3150634765627	-407.2020568847657	90.82791900634767	-832.9419555664065	-205.8887023925782	52.18821716308595	-845.5811767578127	-202.2545623779297	52.45076751708986	-800.009216308594	-233.6417541503907	36.18976593017579	-747.7366943359376	nan	nan	nan	
